<?xml version="1.0" encoding="iso-8859-1"?>
<!-- Generator: Adobe Illustrator 19.0.0, SVG Export Plug-In . SVG Version: 6.00 Build 0)  -->
<svg version="1.1" id="Capa_1" xmlns="http://www.w3.org/2000/svg" xmlns:xlink="http://www.w3.org/1999/xlink" x="0px" y="0px"
	 viewBox="0 0 400.005 400.005" style="enable-background:new 0 0 400.005 400.005;" xml:space="preserve">
<linearGradient id="SVGID_1_" gradientUnits="userSpaceOnUse" x1="-67.1334" y1="579.2899" x2="-67.1334" y2="516.9219" gradientTransform="matrix(8 0 0 -8 737.0695 4581.0439)">
	<stop  offset="0" style="stop-color:#FC5C7D"/>
	<stop  offset="0.129" style="stop-color:#F35E85"/>
	<stop  offset="0.343" style="stop-color:#D9659B"/>
	<stop  offset="0.616" style="stop-color:#B070BF"/>
	<stop  offset="0.934" style="stop-color:#777FF0"/>
	<stop  offset="1" style="stop-color:#6A82FB"/>
</linearGradient>
<path style="fill:url(#SVGID_1_);" d="M135.704,400.005c72.075-0.118,131.552-56.424,135.616-128.384
	c74.948-4.139,132.35-68.252,128.21-143.2c-4.139-74.948-68.252-132.35-143.2-128.21c-69.165,3.82-124.391,59.046-128.21,128.21
	C53.19,132.872-3.944,197.223,0.507,272.153C4.762,343.775,63.956,399.754,135.704,400.005z M263.704,16.005
	c66.274,0,120,53.726,120,120s-53.726,120-120,120s-120-53.726-120-120C143.779,69.762,197.461,16.08,263.704,16.005z
	 M128.128,144.389c0.309,5.334,0.934,10.644,1.872,15.904C72.7,163.394,28.762,212.359,31.862,269.659
	c1.112,20.542,8.296,40.291,20.642,56.746l12.8-9.6c-29.146-38.859-21.271-93.988,17.588-123.133
	c14.704-11.028,32.493-17.173,50.868-17.571c13.342,42.91,46.94,76.51,89.848,89.856c-1.09,48.589-41.362,87.095-89.951,86.005
	c-14.746-0.331-29.172-4.363-41.953-11.725l-8,13.848c49.709,28.688,113.263,11.647,141.951-38.062
	c8.162-14.143,12.876-30.01,13.761-46.314c5.26,0.938,10.57,1.564,15.904,1.872c-4.146,66.105-61.095,116.332-127.2,112.186
	c-66.105-4.146-116.332-61.095-112.186-127.2c3.783-60.322,51.864-108.402,112.186-112.186L128.128,144.389z"/>
<g>
	
		<linearGradient id="SVGID_2_" gradientUnits="userSpaceOnUse" x1="-75.6706" y1="579.2899" x2="-75.6706" y2="516.9219" gradientTransform="matrix(8 0 0 -8 737.0695 4581.0439)">
		<stop  offset="0" style="stop-color:#FC5C7D"/>
		<stop  offset="0.129" style="stop-color:#F35E85"/>
		<stop  offset="0.343" style="stop-color:#D9659B"/>
		<stop  offset="0.616" style="stop-color:#B070BF"/>
		<stop  offset="0.934" style="stop-color:#777FF0"/>
		<stop  offset="1" style="stop-color:#6A82FB"/>
	</linearGradient>
	<path style="fill:url(#SVGID_2_);" d="M146.24,312.005h5.464v-16h-5.464c-4.784-0.044-8.92-3.345-10.024-8h7.488v-16h-8v-8h8v-16
		h-7.488c1.104-4.655,5.24-7.956,10.024-8h5.464v-16h-5.464c-13.632,0.043-25.003,10.428-26.28,24h-8.256v16h8v8h-8v16h8.256
		C121.237,301.577,132.609,311.962,146.24,312.005z"/>
	
		<linearGradient id="SVGID_3_" gradientUnits="userSpaceOnUse" x1="-81.1706" y1="579.2899" x2="-81.1706" y2="516.9219" gradientTransform="matrix(8 0 0 -8 737.0695 4581.0439)">
		<stop  offset="0" style="stop-color:#FC5C7D"/>
		<stop  offset="0.129" style="stop-color:#F35E85"/>
		<stop  offset="0.343" style="stop-color:#D9659B"/>
		<stop  offset="0.616" style="stop-color:#B070BF"/>
		<stop  offset="0.934" style="stop-color:#777FF0"/>
		<stop  offset="1" style="stop-color:#6A82FB"/>
	</linearGradient>
	<path style="fill:url(#SVGID_3_);" d="M79.704,256.005h16v16h-16V256.005z"/>
	
		<linearGradient id="SVGID_4_" gradientUnits="userSpaceOnUse" x1="-70.1706" y1="579.2899" x2="-70.1706" y2="516.9219" gradientTransform="matrix(8 0 0 -8 737.0695 4581.0439)">
		<stop  offset="0" style="stop-color:#FC5C7D"/>
		<stop  offset="0.129" style="stop-color:#F35E85"/>
		<stop  offset="0.343" style="stop-color:#D9659B"/>
		<stop  offset="0.616" style="stop-color:#B070BF"/>
		<stop  offset="0.934" style="stop-color:#777FF0"/>
		<stop  offset="1" style="stop-color:#6A82FB"/>
	</linearGradient>
	<path style="fill:url(#SVGID_4_);" d="M167.704,256.005h16v16h-16V256.005z"/>
	
		<linearGradient id="SVGID_5_" gradientUnits="userSpaceOnUse" x1="-52.4471" y1="579.2899" x2="-52.4471" y2="516.9219" gradientTransform="matrix(8 0 0 -8 737.0695 4581.0439)">
		<stop  offset="0" style="stop-color:#FC5C7D"/>
		<stop  offset="0.129" style="stop-color:#F35E85"/>
		<stop  offset="0.343" style="stop-color:#D9659B"/>
		<stop  offset="0.616" style="stop-color:#B070BF"/>
		<stop  offset="0.934" style="stop-color:#777FF0"/>
		<stop  offset="1" style="stop-color:#6A82FB"/>
	</linearGradient>
	<path style="fill:url(#SVGID_5_);" d="M238.048,380.005l3.312,15.656c80.078-17.376,141.616-81.584,155.576-162.328l-15.776-2.656
		C368.323,304.955,311.714,364.023,238.048,380.005z"/>
	
		<linearGradient id="SVGID_6_" gradientUnits="userSpaceOnUse" x1="-81.8941" y1="579.2899" x2="-81.8941" y2="516.9219" gradientTransform="matrix(8 0 0 -8 737.0695 4581.0439)">
		<stop  offset="0" style="stop-color:#FC5C7D"/>
		<stop  offset="0.129" style="stop-color:#F35E85"/>
		<stop  offset="0.343" style="stop-color:#D9659B"/>
		<stop  offset="0.616" style="stop-color:#B070BF"/>
		<stop  offset="0.934" style="stop-color:#777FF0"/>
		<stop  offset="1" style="stop-color:#6A82FB"/>
	</linearGradient>
	<path style="fill:url(#SVGID_6_);" d="M161.36,20.005l-3.312-15.656C77.97,21.725,16.432,85.933,2.472,166.677l15.776,2.656
		C31.085,95.055,87.695,35.986,161.36,20.005z"/>
	
		<linearGradient id="SVGID_7_" gradientUnits="userSpaceOnUse" x1="-59.1706" y1="579.2899" x2="-59.1706" y2="516.9219" gradientTransform="matrix(8 0 0 -8 737.0695 4581.0439)">
		<stop  offset="0" style="stop-color:#FC5C7D"/>
		<stop  offset="0.129" style="stop-color:#F35E85"/>
		<stop  offset="0.343" style="stop-color:#D9659B"/>
		<stop  offset="0.616" style="stop-color:#B070BF"/>
		<stop  offset="0.934" style="stop-color:#777FF0"/>
		<stop  offset="1" style="stop-color:#6A82FB"/>
	</linearGradient>
	<path style="fill:url(#SVGID_7_);" d="M287.704,120.005v-1.168c-0.037-9.94-6.511-18.71-16-21.672v-9.16h-16v9.16
		c-11.999,3.732-18.7,16.484-14.968,28.483c1.844,5.929,6.032,10.847,11.592,13.613l15.592,7.8c3.376,1.686,4.745,5.789,3.059,9.165
		c-1.156,2.314-3.52,3.777-6.107,3.779h-2.336c-3.771-0.004-6.828-3.061-6.832-6.832v-1.168h-16v1.168
		c0.037,9.94,6.511,18.71,16,21.672v9.16h16v-9.16c11.999-3.732,18.7-16.484,14.968-28.483c-1.844-5.929-6.032-10.847-11.592-13.613
		l-15.592-7.8c-3.376-1.686-4.745-5.789-3.059-9.165c1.156-2.314,3.52-3.777,6.107-3.779h2.336c3.771,0.004,6.828,3.061,6.832,6.832
		v1.168L287.704,120.005z"/>
	
		<linearGradient id="SVGID_8_" gradientUnits="userSpaceOnUse" x1="-59.1703" y1="579.2899" x2="-59.1703" y2="516.9219" gradientTransform="matrix(8 0 0 -8 737.0695 4581.0439)">
		<stop  offset="0" style="stop-color:#FC5C7D"/>
		<stop  offset="0.129" style="stop-color:#F35E85"/>
		<stop  offset="0.343" style="stop-color:#D9659B"/>
		<stop  offset="0.616" style="stop-color:#B070BF"/>
		<stop  offset="0.934" style="stop-color:#777FF0"/>
		<stop  offset="1" style="stop-color:#6A82FB"/>
	</linearGradient>
	<path style="fill:url(#SVGID_8_);" d="M263.704,240.005c57.438,0,104-46.562,104-104c0-22.502-7.298-44.398-20.8-62.4l-12.8,9.6
		c29.099,38.861,21.185,93.953-17.675,123.052c-38.861,29.099-93.953,21.185-123.052-17.675S172.192,94.628,211.052,65.53
		c28.162-21.088,66.186-23.353,96.652-5.757l8-13.848c-49.75-28.706-113.351-11.647-142.057,38.103s-11.647,113.351,38.103,142.057
		C227.548,235.2,245.465,240.001,263.704,240.005L263.704,240.005z"/>
	
		<linearGradient id="SVGID_9_" gradientUnits="userSpaceOnUse" x1="-65.1706" y1="579.2899" x2="-65.1706" y2="516.9219" gradientTransform="matrix(8 0 0 -8 737.0695 4581.0439)">
		<stop  offset="0" style="stop-color:#FC5C7D"/>
		<stop  offset="0.129" style="stop-color:#F35E85"/>
		<stop  offset="0.343" style="stop-color:#D9659B"/>
		<stop  offset="0.616" style="stop-color:#B070BF"/>
		<stop  offset="0.934" style="stop-color:#777FF0"/>
		<stop  offset="1" style="stop-color:#6A82FB"/>
	</linearGradient>
	<path style="fill:url(#SVGID_9_);" d="M207.704,128.005h16v16h-16V128.005z"/>
	
		<linearGradient id="SVGID_10_" gradientUnits="userSpaceOnUse" x1="-53.1706" y1="579.2899" x2="-53.1706" y2="516.9219" gradientTransform="matrix(8 0 0 -8 737.0695 4581.0439)">
		<stop  offset="0" style="stop-color:#FC5C7D"/>
		<stop  offset="0.129" style="stop-color:#F35E85"/>
		<stop  offset="0.343" style="stop-color:#D9659B"/>
		<stop  offset="0.616" style="stop-color:#B070BF"/>
		<stop  offset="0.934" style="stop-color:#777FF0"/>
		<stop  offset="1" style="stop-color:#6A82FB"/>
	</linearGradient>
	<path style="fill:url(#SVGID_10_);" d="M303.704,128.005h16v16h-16V128.005z"/>
</g>
<g>
</g>
<g>
</g>
<g>
</g>
<g>
</g>
<g>
</g>
<g>
</g>
<g>
</g>
<g>
</g>
<g>
</g>
<g>
</g>
<g>
</g>
<g>
</g>
<g>
</g>
<g>
</g>
<g>
</g>
</svg>
