<?xml version="1.0" encoding="iso-8859-1"?>
<!-- Generator: Adobe Illustrator 19.0.0, SVG Export Plug-In . SVG Version: 6.00 Build 0)  -->
<svg version="1.1" id="Capa_1" xmlns="http://www.w3.org/2000/svg" xmlns:xlink="http://www.w3.org/1999/xlink" x="0px" y="0px"
	 viewBox="0 0 479.961 479.961" style="enable-background:new 0 0 479.961 479.961;" xml:space="preserve">
<linearGradient id="SVGID_1_" gradientUnits="userSpaceOnUse" x1="-23.9423" y1="621.228" x2="-23.9423" y2="553.769" gradientTransform="matrix(8 0 0 -8 511.4758 4941)">
	<stop  offset="0" style="stop-color:#FC5C7D"/>
	<stop  offset="0.129" style="stop-color:#F35E85"/>
	<stop  offset="0.343" style="stop-color:#D9659B"/>
	<stop  offset="0.616" style="stop-color:#B070BF"/>
	<stop  offset="0.934" style="stop-color:#777FF0"/>
	<stop  offset="1" style="stop-color:#6A82FB"/>
</linearGradient>
<path style="fill:url(#SVGID_1_);" d="M223.932,352c-0.027,18.595,5.37,36.793,15.528,52.368l13.408-8.736
	c-24.094-37.035-13.603-86.59,23.432-110.684s86.59-13.603,110.684,23.432s13.603,86.59-23.432,110.684
	c-26.524,17.256-60.728,17.256-87.252,0l-8.736,13.408c44.436,28.922,103.905,16.345,132.827-28.091
	c28.922-44.436,16.345-103.905-28.091-132.827c-44.436-28.922-103.905-16.345-132.827,28.091
	C229.334,315.224,223.935,333.412,223.932,352L223.932,352z"/>
<g>
	
		<linearGradient id="SVGID_2_" gradientUnits="userSpaceOnUse" x1="-23.693" y1="621.228" x2="-23.693" y2="553.769" gradientTransform="matrix(8 0 0 -8 511.4758 4941)">
		<stop  offset="0" style="stop-color:#FC5C7D"/>
		<stop  offset="0.129" style="stop-color:#F35E85"/>
		<stop  offset="0.343" style="stop-color:#D9659B"/>
		<stop  offset="0.616" style="stop-color:#B070BF"/>
		<stop  offset="0.934" style="stop-color:#777FF0"/>
		<stop  offset="1" style="stop-color:#6A82FB"/>
	</linearGradient>
	<path style="fill:url(#SVGID_2_);" d="M303.932,400c2.122,0,4.156-0.844,5.656-2.344l60-60l-11.312-11.312l-54.344,54.344
		l-18.344-18.344l-11.312,11.312l24,24C299.776,399.156,301.81,400,303.932,400z"/>
	
		<linearGradient id="SVGID_3_" gradientUnits="userSpaceOnUse" x1="-47.443" y1="621.228" x2="-47.443" y2="553.769" gradientTransform="matrix(8 0 0 -8 511.4758 4941)">
		<stop  offset="0" style="stop-color:#FC5C7D"/>
		<stop  offset="0.129" style="stop-color:#F35E85"/>
		<stop  offset="0.343" style="stop-color:#D9659B"/>
		<stop  offset="0.616" style="stop-color:#B070BF"/>
		<stop  offset="0.934" style="stop-color:#777FF0"/>
		<stop  offset="1" style="stop-color:#6A82FB"/>
	</linearGradient>
	<path style="fill:url(#SVGID_3_);" d="M71.932,272h120v16h-120V272z"/>
	
		<linearGradient id="SVGID_4_" gradientUnits="userSpaceOnUse" x1="-43.443" y1="621.228" x2="-43.443" y2="553.769" gradientTransform="matrix(8 0 0 -8 511.4758 4941)">
		<stop  offset="0" style="stop-color:#FC5C7D"/>
		<stop  offset="0.129" style="stop-color:#F35E85"/>
		<stop  offset="0.343" style="stop-color:#D9659B"/>
		<stop  offset="0.616" style="stop-color:#B070BF"/>
		<stop  offset="0.934" style="stop-color:#777FF0"/>
		<stop  offset="1" style="stop-color:#6A82FB"/>
	</linearGradient>
	<path style="fill:url(#SVGID_4_);" d="M119.932,240h88v16h-88V240z"/>
	
		<linearGradient id="SVGID_5_" gradientUnits="userSpaceOnUse" x1="-44.443" y1="621.228" x2="-44.443" y2="553.769" gradientTransform="matrix(8 0 0 -8 511.4758 4941)">
		<stop  offset="0" style="stop-color:#FC5C7D"/>
		<stop  offset="0.129" style="stop-color:#F35E85"/>
		<stop  offset="0.343" style="stop-color:#D9659B"/>
		<stop  offset="0.616" style="stop-color:#B070BF"/>
		<stop  offset="0.934" style="stop-color:#777FF0"/>
		<stop  offset="1" style="stop-color:#6A82FB"/>
	</linearGradient>
	<path style="fill:url(#SVGID_5_);" d="M71.932,200h168v16h-168V200z"/>
	
		<linearGradient id="SVGID_6_" gradientUnits="userSpaceOnUse" x1="-36.943" y1="621.228" x2="-36.943" y2="553.769" gradientTransform="matrix(8 0 0 -8 511.4758 4941)">
		<stop  offset="0" style="stop-color:#FC5C7D"/>
		<stop  offset="0.129" style="stop-color:#F35E85"/>
		<stop  offset="0.343" style="stop-color:#D9659B"/>
		<stop  offset="0.616" style="stop-color:#B070BF"/>
		<stop  offset="0.934" style="stop-color:#777FF0"/>
		<stop  offset="1" style="stop-color:#6A82FB"/>
	</linearGradient>
	<path style="fill:url(#SVGID_6_);" d="M119.932,168h192v16h-192V168z"/>
	
		<linearGradient id="SVGID_7_" gradientUnits="userSpaceOnUse" x1="-48.443" y1="621.228" x2="-48.443" y2="553.769" gradientTransform="matrix(8 0 0 -8 511.4758 4941)">
		<stop  offset="0" style="stop-color:#FC5C7D"/>
		<stop  offset="0.129" style="stop-color:#F35E85"/>
		<stop  offset="0.343" style="stop-color:#D9659B"/>
		<stop  offset="0.616" style="stop-color:#B070BF"/>
		<stop  offset="0.934" style="stop-color:#777FF0"/>
		<stop  offset="1" style="stop-color:#6A82FB"/>
	</linearGradient>
	<path style="fill:url(#SVGID_7_);" d="M71.932,344h104v16h-104V344z"/>
	
		<linearGradient id="SVGID_8_" gradientUnits="userSpaceOnUse" x1="-45.443" y1="621.228" x2="-45.443" y2="553.769" gradientTransform="matrix(8 0 0 -8 511.4758 4941)">
		<stop  offset="0" style="stop-color:#FC5C7D"/>
		<stop  offset="0.129" style="stop-color:#F35E85"/>
		<stop  offset="0.343" style="stop-color:#D9659B"/>
		<stop  offset="0.616" style="stop-color:#B070BF"/>
		<stop  offset="0.934" style="stop-color:#777FF0"/>
		<stop  offset="1" style="stop-color:#6A82FB"/>
	</linearGradient>
	<path style="fill:url(#SVGID_8_);" d="M119.932,312h56v16h-56V312z"/>
	
		<linearGradient id="SVGID_9_" gradientUnits="userSpaceOnUse" x1="-47.443" y1="621.228" x2="-47.443" y2="553.769" gradientTransform="matrix(8 0 0 -8 511.4758 4941)">
		<stop  offset="0" style="stop-color:#FC5C7D"/>
		<stop  offset="0.129" style="stop-color:#F35E85"/>
		<stop  offset="0.343" style="stop-color:#D9659B"/>
		<stop  offset="0.616" style="stop-color:#B070BF"/>
		<stop  offset="0.934" style="stop-color:#777FF0"/>
		<stop  offset="1" style="stop-color:#6A82FB"/>
	</linearGradient>
	<path style="fill:url(#SVGID_9_);" d="M71.932,416h120v16h-120V416z"/>
	
		<linearGradient id="SVGID_10_" gradientUnits="userSpaceOnUse" x1="-45.443" y1="621.228" x2="-45.443" y2="553.769" gradientTransform="matrix(8 0 0 -8 511.4758 4941)">
		<stop  offset="0" style="stop-color:#FC5C7D"/>
		<stop  offset="0.129" style="stop-color:#F35E85"/>
		<stop  offset="0.343" style="stop-color:#D9659B"/>
		<stop  offset="0.616" style="stop-color:#B070BF"/>
		<stop  offset="0.934" style="stop-color:#777FF0"/>
		<stop  offset="1" style="stop-color:#6A82FB"/>
	</linearGradient>
	<path style="fill:url(#SVGID_10_);" d="M119.932,384h56v16h-56V384z"/>
	
		<linearGradient id="SVGID_11_" gradientUnits="userSpaceOnUse" x1="-38.943" y1="621.228" x2="-38.943" y2="553.769" gradientTransform="matrix(8 0 0 -8 511.4758 4941)">
		<stop  offset="0" style="stop-color:#FC5C7D"/>
		<stop  offset="0.129" style="stop-color:#F35E85"/>
		<stop  offset="0.343" style="stop-color:#D9659B"/>
		<stop  offset="0.616" style="stop-color:#B070BF"/>
		<stop  offset="0.934" style="stop-color:#777FF0"/>
		<stop  offset="1" style="stop-color:#6A82FB"/>
	</linearGradient>
	<path style="fill:url(#SVGID_11_);" d="M191.932,126.84V136h16v-9.16c11.999-3.732,18.7-16.484,14.968-28.483
		c-1.844-5.929-6.032-10.847-11.592-13.613l-15.592-7.8c-3.376-1.686-4.745-5.789-3.059-9.165c1.156-2.314,3.52-3.777,6.107-3.779
		h2.336c3.771,0.004,6.828,3.061,6.832,6.832V72h16v-1.168c-0.037-9.94-6.511-18.71-16-21.672V40h-16v9.16
		c-11.999,3.732-18.7,16.484-14.968,28.483c1.844,5.929,6.032,10.847,11.592,13.613l15.592,7.8c3.376,1.686,4.745,5.789,3.059,9.165
		c-1.156,2.314-3.52,3.777-6.107,3.779h-2.336c-3.771-0.004-6.828-3.061-6.832-6.832V104h-16v1.168
		C175.969,115.108,182.443,123.878,191.932,126.84z"/>
	
		<linearGradient id="SVGID_12_" gradientUnits="userSpaceOnUse" x1="-33.9369" y1="621.228" x2="-33.9369" y2="553.769" gradientTransform="matrix(8 0 0 -8 511.4758 4941)">
		<stop  offset="0" style="stop-color:#FC5C7D"/>
		<stop  offset="0.129" style="stop-color:#F35E85"/>
		<stop  offset="0.343" style="stop-color:#D9659B"/>
		<stop  offset="0.616" style="stop-color:#B070BF"/>
		<stop  offset="0.934" style="stop-color:#777FF0"/>
		<stop  offset="1" style="stop-color:#6A82FB"/>
	</linearGradient>
	<path style="fill:url(#SVGID_12_);" d="M39.932,472h235.88c66.24,24.476,139.78-9.38,164.256-75.62s-9.38-139.78-75.62-164.256
		c-4.102-1.516-8.28-2.82-12.516-3.908V72h40c4.418,0,8-3.582,8-8V32c0-17.673-14.327-32-32-32h-304c-17.673,0-32,14.327-32,32v432
		C31.932,468.418,35.514,472,39.932,472z M431.932,352c0,61.856-50.144,112-112,112s-112-50.144-112-112s50.144-112,112-112
		C381.76,240.066,431.866,290.172,431.932,352z M383.932,32v24h-32V32c0-8.837,7.163-16,16-16S383.932,23.163,383.932,32z
		 M47.932,32c0-8.837,7.163-16,16-16H340.38c-2.879,4.843-4.415,10.366-4.448,16v193.112
		c-70.017-8.949-134.031,40.557-142.98,110.574c-5.974,46.743,14.258,92.981,52.644,120.314H47.932V32z"/>
	
		<linearGradient id="SVGID_13_" gradientUnits="userSpaceOnUse" x1="-51.943" y1="621.228" x2="-51.943" y2="553.769" gradientTransform="matrix(8 0 0 -8 511.4758 4941)">
		<stop  offset="0" style="stop-color:#FC5C7D"/>
		<stop  offset="0.129" style="stop-color:#F35E85"/>
		<stop  offset="0.343" style="stop-color:#D9659B"/>
		<stop  offset="0.616" style="stop-color:#B070BF"/>
		<stop  offset="0.934" style="stop-color:#777FF0"/>
		<stop  offset="1" style="stop-color:#6A82FB"/>
	</linearGradient>
	<path style="fill:url(#SVGID_13_);" d="M87.932,168h16v16h-16V168z"/>
	
		<linearGradient id="SVGID_14_" gradientUnits="userSpaceOnUse" x1="-51.943" y1="621.228" x2="-51.943" y2="553.769" gradientTransform="matrix(8 0 0 -8 511.4758 4941)">
		<stop  offset="0" style="stop-color:#FC5C7D"/>
		<stop  offset="0.129" style="stop-color:#F35E85"/>
		<stop  offset="0.343" style="stop-color:#D9659B"/>
		<stop  offset="0.616" style="stop-color:#B070BF"/>
		<stop  offset="0.934" style="stop-color:#777FF0"/>
		<stop  offset="1" style="stop-color:#6A82FB"/>
	</linearGradient>
	<path style="fill:url(#SVGID_14_);" d="M87.932,240h16v16h-16V240z"/>
	
		<linearGradient id="SVGID_15_" gradientUnits="userSpaceOnUse" x1="-51.943" y1="621.228" x2="-51.943" y2="553.769" gradientTransform="matrix(8 0 0 -8 511.4758 4941)">
		<stop  offset="0" style="stop-color:#FC5C7D"/>
		<stop  offset="0.129" style="stop-color:#F35E85"/>
		<stop  offset="0.343" style="stop-color:#D9659B"/>
		<stop  offset="0.616" style="stop-color:#B070BF"/>
		<stop  offset="0.934" style="stop-color:#777FF0"/>
		<stop  offset="1" style="stop-color:#6A82FB"/>
	</linearGradient>
	<path style="fill:url(#SVGID_15_);" d="M87.932,312h16v16h-16V312z"/>
	
		<linearGradient id="SVGID_16_" gradientUnits="userSpaceOnUse" x1="-51.943" y1="621.228" x2="-51.943" y2="553.769" gradientTransform="matrix(8 0 0 -8 511.4758 4941)">
		<stop  offset="0" style="stop-color:#FC5C7D"/>
		<stop  offset="0.129" style="stop-color:#F35E85"/>
		<stop  offset="0.343" style="stop-color:#D9659B"/>
		<stop  offset="0.616" style="stop-color:#B070BF"/>
		<stop  offset="0.934" style="stop-color:#777FF0"/>
		<stop  offset="1" style="stop-color:#6A82FB"/>
	</linearGradient>
	<path style="fill:url(#SVGID_16_);" d="M87.932,384h16v16h-16V384z"/>
</g>
<g>
</g>
<g>
</g>
<g>
</g>
<g>
</g>
<g>
</g>
<g>
</g>
<g>
</g>
<g>
</g>
<g>
</g>
<g>
</g>
<g>
</g>
<g>
</g>
<g>
</g>
<g>
</g>
<g>
</g>
</svg>
