<svg id="Layer_1" enable-background="new 0 0 512.516 512.516" height="512" viewBox="0 0 512.516 512.516" width="512" xmlns="http://www.w3.org/2000/svg"><path d="m245 21.903c-133.744 0-242.443 107.17-244.94 240.317l18.947 99.444c15.063 35.881 38.428 67.41 67.683 92.206l94.297 49.566c20.408 5.51 41.863 8.466 64.013 8.466 135.31 0 245-109.69 245-245s-109.69-244.999-245-244.999z" fill="#ffb733"/><path d="m176.454 294.019c-7.745-1.765-13.719-7.899-15.296-15.659l-9.55 5.48c-.006.012-.012.024-.019.035.016.053.03.106.047.159-.03-.043-.051-.076-.073-.11-1.976 3.62-3.285 7.564-3.873 11.63 6.381 5.498 16.278 9.498 27.801 9 6.185-.255 7-9.154.963-10.535z" fill="#616179"/><path d="m153.503 281.983c-6.969 3.999-21.096 12.105-28.397 16.294l22.027 38.388c5.519-3.167 10.218-5.863 15.732-9.027-14.668-10.555-18.511-30.424-9.362-45.655z" fill="#404057"/><path d="m205.004 321.733-54.481 31.261c-4.14 2.375-9.421.945-11.796-3.195-2.376-4.14-.945-9.421 3.195-11.797l54.481-31.261c7.966-4.571 10.727-14.77 6.157-22.734l-13.024-22.699c-2.376-4.14-.945-9.421 3.195-11.797 4.14-2.375 9.421-.946 11.797 3.195l13.024 22.699c9.311 16.232 3.683 37.014-12.548 46.328z" fill="#616179"/><path d="m191.609 309.491-49.689 28.511c-4.14 2.375-5.57 7.656-3.194 11.797 2.376 4.14 7.657 5.57 11.797 3.195l49.105-28.176c-7.606-.478-11.933-8.863-8.019-15.327z" fill="#4c4c64"/><path d="m250.611 163.882-7.844-13.671 27.978-16.054 24.904 43.402-31.751 18.218-14.091-24.558c1.785-1.957 2.193-4.916.804-7.337z" fill="#4c4c64"/><path d="m249.807 171.219 3.029 5.278 22.428-12.869c3.64-2.089 7.782-2.505 11.537-1.49l-16.056-27.982-27.978 16.054 7.844 13.671c1.389 2.422.981 5.38-.804 7.338z" fill="#404057"/><path d="m25.688 355.324-3.481 3.615s39.026-6.458 52.806 51.512c3.72 15.652 7.761 30.326 11.678 43.42 15.759 13.357 33.219 24.77 52.025 33.839l4.674-1.349-68.44-159.304z" fill="#616179"/><path d="m74.949 327.057-49.262 28.266-3.481 3.615s31.337-5.177 47.764 35.465c1.694-13.334 12.827-18.22 12.827-18.22s4.285-2.456 10.618-6.141z" fill="#4c4c64"/><path d="m74.006 327.599 68.44 159.304 61.279-17.68c.647-.187 1.296-.309 1.945-.404l-76.497-172.874z" fill="#88889f"/><g fill="#616179"><path d="m129.173 295.944-55.167 31.654 18.469 42.991c8.64-5.022 21.594-12.621 32.63-19.378 18.465-11.305 28.523 0 28.523 0z"/><path d="m203.812 466.682-67.956 19.607c14.305 7.131 29.404 12.901 45.132 17.148l30.86-8.904c7.691-2.219 12.127-10.252 9.908-17.943-2.22-7.692-10.253-12.127-17.944-9.908z"/><path d="m267.785 114.983 197.218-113.163c4.365-2.505 9.986-.982 12.491 3.383l33.816 58.934c2.505 4.365.983 9.986-3.383 12.491l-197.218 113.162c-4.365 2.505-9.986.982-12.49-3.383l-33.816-58.934c-2.505-4.365-.983-9.985 3.382-12.49z"/></g><path d="m287.891 150.964 198.03-113.629c3.48-1.997 7.75-1.437 10.623 1.069l-19.051-33.201c-2.505-4.365-8.125-5.887-12.491-3.383l-197.217 113.163c-4.365 2.505-5.887 8.125-3.382 12.491l19.051 33.201c-.715-3.745.956-7.714 4.437-9.711z" fill="#4c4c64"/><path d="m490.032 96.859c-4.14 2.375-9.421.945-11.797-3.195l-42.924-74.807c-2.376-4.14-.945-9.421 3.195-11.797s9.421-.946 11.797 3.195l42.924 74.807c2.376 4.14.945 9.421-3.195 11.797z" fill="#88889f"/><path d="m460.259 44.971c3.441-1.974 7.614-1.477 10.493.922l-20.449-35.638c-2.376-4.14-7.657-5.57-11.797-3.195s-5.57 7.656-3.195 11.797l20.449 35.638c-.618-3.696 1.059-7.55 4.499-9.524z" fill="#616179"/><path d="m337.206 184.55c-4.14 2.375-9.421.946-11.797-3.195l-42.924-74.807c-2.376-4.14-.945-9.421 3.195-11.797 4.14-2.375 9.421-.946 11.797 3.195l42.924 74.807c2.375 4.14.945 9.421-3.195 11.797z" fill="#88889f"/><path d="m250.819 168.614c-.374.524-.855.983-1.45 1.324l-190.068 109.06c-18.871 10.828-42.982 8.232-59.227-6.194.743 31.445 7.413 61.421 18.932 88.86l248.202-142.417c5.24-3.007 7.067-9.753 4.06-14.993z" fill="#ebebf2"/><path d="m53.641 320.85c-3.18-7.363-9.972-22.288-15.948-35.326-13.469.933-27.171-3.442-37.619-12.721.743 31.445 7.413 61.421 18.932 88.86l55.864-32.053c-.001 0-14.895 5.906-21.229-8.76z" fill="#dcdce6"/><path d="m192.989 154.025-6.772-11.802c-3.926-6.842-1.54-15.652 5.302-19.578s15.652-1.54 19.578 5.302l6.772 11.802z" fill="#ebebf2"/><path d="m238.354 138.151c-3.006-5.24-9.753-7.067-14.993-4.06l-223.302 128.129c-.029 1.559-.059 3.117-.059 4.683 0 2.717.06 5.419.148 8.114 16.417 13.743 40.383 16.632 59.965 5.396l190.068-109.06c3.001-1.722 4.039-5.552 2.316-8.553z" fill="#dcdce6"/><path d="m38.44 287.155c-6.237-13.617-11.799-25.638-11.799-25.638s-6.292-10.939 6.041-18.015h.001l-32.624 18.718c-.029 1.559-.059 3.117-.059 4.683 0 2.717.06 5.419.148 8.114 10.668 8.93 24.523 13.271 38.292 12.138z" fill="#bcbbca"/><path d="m307.433 132.662c3.441-1.974 7.614-1.477 10.493.922l-20.449-35.638c-2.376-4.14-7.657-5.57-11.797-3.195s-5.57 7.656-3.195 11.797l20.449 35.638c-.618-3.696 1.058-7.55 4.499-9.524z" fill="#616179"/></svg>